<?xml version="1.0" encoding="utf-8"?>
<!-- Generator: Adobe Illustrator 28.3.0, SVG Export Plug-In . SVG Version: 6.00 Build 0)  -->
<svg version="1.1" id="Capa_1" xmlns="http://www.w3.org/2000/svg" xmlns:xlink="http://www.w3.org/1999/xlink" x="0px" y="0px"
	 viewBox="0 0 2500 2500" style="enable-background:new 0 0 2500 2500;" xml:space="preserve">
<style type="text/css">
	.st0{fill-rule:evenodd;clip-rule:evenodd;}
	.st1{fill-rule:evenodd;clip-rule:evenodd;fill:#E8AE38;}
	.st2{fill-rule:evenodd;clip-rule:evenodd;fill:#D35B4A;}
	.st3{fill-rule:evenodd;clip-rule:evenodd;fill:#6379B9;}
</style>
<g>
	<path class="st0" d="M660,1900h-25.5l-63,181.5L506.4,1900h-43.9l81.7,228.9l32.7,0.3L660,1900L660,1900z M900.7,1900v229.2h138.9
		l1-52.1H1028c0,31.7-16.7,33-37.8,33h-28.6c-20.8,0-20.8,0-20.8-23.5V1900H900.7z M1228.8,2077.1h-12.6c-2,26.9-10.6,33-28.6,33
		h-36.8c-16,0-19.4-0.4-19.4-17.7v-73.2h38.5c19.1,0,25.9,9.9,25.9,28.9h12.6v-73.9h-12.3c-0.5,3.3-1.2,6.6-2,9.9
		c-3.4,11.9-11.6,16-24.2,16h-38.5v-65.4c0-14.6,3.1-15.7,19.4-15.7h25.9c21.5,0,34.4,6.8,34.4,34h12.6l-1-53.1h-163.1v10.6
		c8.9,1.4,14.6,2,19.1,3.4s7.2,2.7,8.9,4.8c3.7,4.1,3.7,11.6,3.7,28.6v181.8h136.5L1228.8,2077.1L1228.8,2077.1z M1468.1,2129.1
		V1900h-24.5v179.1L1340,1900h-73.2v10.6c8.5,1.7,14.3,2.7,18.7,3.7c4.4,1,7.5,2.4,9.5,4.1c4.1,3.7,5.1,10.6,5.1,26.2v184.6h24.5
		v-187.6l108.6,187.6L1468.1,2129.1L1468.1,2129.1L1468.1,2129.1z M1689.1,1949.3c-4.1-30-25.2-53.1-78-53.1
		c-75.9,0-94.7,53.5-94.7,115.8c0,75.6,26.6,120.9,96.4,120.9c33.4,0,60.6-9.2,70.1-12.9v-25.9c-11.2,8.2-31,19.7-59.6,19.7
		c-62.7,0-66.7-72.2-66.7-110.3c0-35.1,7.5-88.2,51.4-88.2c28.9,0,35.8,21.8,37.5,34L1689.1,1949.3L1689.1,1949.3L1689.1,1949.3z
		 M1741.5,1900l0.4,229.2h38.8V1900H1741.5z M2228.9,2129.1V1900h-24.5v179.1L2100.9,1900h-73.2v10.6c8.5,1.7,14.3,2.7,18.7,3.7
		s7.5,2.4,9.5,4.1c4.1,3.7,5.1,10.6,5.1,26.2v184.6h24.5v-187.6l108.6,187.6L2228.9,2129.1L2228.9,2129.1L2228.9,2129.1z
		 M752.2,1608.8c-4.1-30-25.2-53.2-78-53.2c-75.9,0-94.7,53.5-94.7,115.8c0,75.6,26.6,120.9,96.4,120.9c33.4,0,60.6-9.2,70.2-12.9
		v-25.9c-11.2,8.2-31,19.8-59.6,19.8c-62.7,0-66.7-72.2-66.7-110.3c0-35.1,7.5-88.2,51.4-88.2c28.9,0,35.8,21.8,37.5,34.1
		L752.2,1608.8L752.2,1608.8z M1265.4,1788.6v-229.2H1217l-64.4,182.9l-65.7-182.9h-79v10.5c8.5,1.7,14,2.7,18.4,3.7
		s7.5,2.4,9.5,4.1c4.1,3.7,5.4,10.6,5.4,26.2v184.6h24.5v-191.4l68.1,191.4h26.2l68.1-193.4v193.4L1265.4,1788.6L1265.4,1788.6
		L1265.4,1788.6z M1330.9,1559.5v153.2c0,50.7,22.1,79.7,82.1,79.7c77.3,0,81.4-47.3,81.4-92.3v-140.6h-27.6v144.4
		c0,34.4,0,69.5-49.4,69.5c-46,0-46.3-38.5-46.3-77.3v-136.9L1330.9,1559.5L1330.9,1559.5z M1740.6,1788.6v-229.2h-24.5v179.1
		l-103.5-179.1h-73.2v10.5c8.5,1.7,14.3,2.7,18.7,3.7c4.4,1,7.5,2.4,9.5,4.1c4.1,3.7,5.1,10.6,5.1,26.2v184.6h24.5v-187.7
		l108.6,187.7L1740.6,1788.6L1740.6,1788.6L1740.6,1788.6z M1812.6,1559.5l0.4,229.2h38.8v-229.2H1812.6L1812.6,1559.5z
		 M2072.4,1612.6l-1.4-53.1h-174.4l-1.4,52.1h12.6c2-25.2,8.8-33,34.4-33h21.5v210.1h40.2v-210.1h21.1c24.9,0,34.8,7.5,34.8,34.1
		L2072.4,1612.6L2072.4,1612.6z M2463.2,1612.6l-1.4-53.1h-174.4l-1.4,52.1h12.6c2-25.2,8.8-33,34.4-33h21.5v210.1h40.2v-210.1h21.1
		c24.9,0,34.7,7.5,34.7,34.1L2463.2,1612.6L2463.2,1612.6z"/>
	<path class="st1" d="M802.5,744.9c1.2,2.1,0.5,4.7-1.6,5.9c-1.6,0.9-3.6,0.7-5-0.5c-7-4.7-15.2-7.5-23.7-7.9
		c-25.6-1.3-47.2,19.3-48.7,44.8c-2.3,39.6-41.4,67.9-81.9,65.8c-43.5-2.3-76.9-39.4-74.6-82.8l0,0c0.8-15.6,6.5-26.9,15.2-42.1
		c22.5-39.2,66.7-54,112-51.6C741.2,679,780.5,706.3,802.5,744.9C802.5,744.9,780.5,706.3,802.5,744.9L802.5,744.9z"/>
	<path class="st2" d="M1042.5,384.5c24.5-37.7,75-48.5,112.7-24s48.5,75,24,112.7c-24.5,37.8-151.2,136-176.1,116.8
		C976.4,569.5,1018,422.3,1042.5,384.5C1042.5,384.5,1018,422.3,1042.5,384.5L1042.5,384.5z"/>
	<path class="st3" d="M44.8,2118.8c64.3,31.8,134,48,203.9,61c11.6,1.4,18.6-8.1,19.7-12.8c90.2-474,323.8-896.2,653.5-1220.7
		c-21.5-57.3-47.3-110.2-77.5-162.6c-82.8,77.9-160.2,161.3-231.7,249.7c-19.3,12.3-58.3-6.5-70.8,8.3
		c-227.3,268.8-424.8,671-504.8,1055.4C35,2106.6,43,2117.9,44.8,2118.8C44.8,2118.8,43,2117.9,44.8,2118.8z"/>
	<path class="st2" d="M514.1,380.9l110.8-59.7c3.2-1.6,3.8-1.6,6.9,0.7c56.5,41.5,109.5,87.5,158.5,137.6c2.4,2,5.7,2.5,8.6,1.1
		l26.2-13.2c0,0,6.7-0.2,7.7,0.8C1050,678.4,1184.3,987.1,1189,1326c0,1.1-1.7,4.1-3.2,5.3c-21.1,9.9-76.8,17.5-107.9,17.4
		c-3.8,0-5.9-2.6-5.9-6.3c0-36-1.7-71.9-4.9-107.8l-46.6,8.3c-31.3-354-225.5-665.8-507.2-853.2
		C509.8,386.8,511.5,382.4,514.1,380.9C514.1,380.9,511.5,382.4,514.1,380.9z"/>
	<path class="st3" d="M1031,668.5l20.4-11.2c44.6-21.1,93.5-41.6,172.3-56.8c58.3-11.2,57.3-8.9,101.7-12.3l16.6,40.3
		c59.3-3.4,142,8.6,199.9,28.9c1.1,0.4,3.6,3.7,3.8,5c0,0-0.7,72.8-1.9,98.1c-0.3,5.4-5.6,6.8-8,5.9
		c-85.6-30.8-168.4-34.2-232.6-27.7c-16.5,1.7-32.4,3.9-47.6,6.7c-30.5-13.1-67.2-24.7-115.7-39.3l-25,84.8
		c-5.6,2.7-11,5.6-16.3,8.4C1078.4,754.4,1055.9,710.8,1031,668.5C1031,668.5,1055.7,710.3,1031,668.5z"/>
	<path class="st1" d="M1152,733.3c131.7,39.7,157.4,52.2,238.3,173c42.2,63,102.4,101,152.1,122.1c6.2,2.6,7.2,6.6,5.4,10.8
		c-8.5,20.6-56,82.1-59.3,84.9c-5,4.3-12.8,4.4-17.5,1.9c-35.2-16-145-82.2-192.9-160.4c-50.2-81.9-103.3-101-160.5-116.5
		L1152,733.3L1152,733.3z"/>
	<path class="st0" d="M937.9,1674.9c0,43.6-2.4,98.4-52.1,98.4c-49,0-54.1-56.2-54.1-98.4c0-46,4.1-100.1,54.1-100.1
		C934.5,1574.8,937.9,1630.3,937.9,1674.9C937.9,1674.9,937.9,1630.3,937.9,1674.9z M978.1,1674.9c0-72.6-21.1-119.2-92.3-119.2
		c-73.9,0-94.3,46.7-94.3,119.2c0,72.2,22.5,117.5,94.3,117.5C956.7,1792.4,978.1,1746.4,978.1,1674.9
		C978.1,1674.9,978.1,1746.4,978.1,1674.9z M2208.4,1699.8h-69.1l33.7-91.6L2208.4,1699.8z M2278.9,1788.6l-82.7-229.2h-65.7v10.5
		c4.8,0.7,7.8,1,10.9,1.7c7.5,1.4,14.6,3.1,14.6,12.6c0,2-3.4,13.3-5.4,19.1l-67.4,185.3h24.2l25.2-69.8h83.1l24.9,69.8H2278.9z
		 M787.7,2040.3h-69.1l33.7-91.6L787.7,2040.3z M858.2,2129.1L775.4,1900h-65.7v10.6c4.8,0.7,7.8,1,10.9,1.7
		c7.5,1.4,14.6,3.1,14.6,12.6c0,2-3.4,13.3-5.4,19.1l-67.4,185.2h24.2l25.2-69.8h83.1l24.9,69.8L858.2,2129.1L858.2,2129.1z
		 M1947.7,2040.3h-69.1l33.7-91.6L1947.7,2040.3z M2018.2,2129.1l-82.7-229.2h-65.7v10.6c4.8,0.7,7.8,1,10.9,1.7
		c7.5,1.4,14.6,3.1,14.6,12.6c0,2-3.4,13.3-5.4,19.1l-67.4,185.2h24.2l25.2-69.8h83.1l24.9,69.8H2018.2L2018.2,2129.1z
		 M2389.3,2040.3h-69.1l33.7-91.6L2389.3,2040.3z M2459.8,2129.1l-82.7-229.2h-65.7v10.6c4.8,0.7,7.8,1,10.9,1.7
		c7.5,1.4,14.6,3.1,14.6,12.6c0,2-3.4,13.3-5.4,19.1l-67.4,185.2h24.2l25.2-69.8h83.1l24.9,69.8H2459.8L2459.8,2129.1z"/>
</g>
</svg>
